<svg version="1.1" xmlns="http://www.w3.org/2000/svg" xmlns:xlink="http://www.w3.org/1999/xlink" width="544.28379" height="449.58162" viewBox="0,0,544.28379,449.58162"><g transform="translate(28.40286,16.35975)"><g stroke-miterlimit="10"><path d="M-3.25,-2.45h486.5v364.9h-486.5z" fill="#000000" stroke="#ffe7c0" stroke-width="7"/><text transform="translate(114.53084,89.85713) rotate(0.30424) scale(1.17211,1.17211)" font-size="40" xml:space="preserve" fill="#ec0000" stroke="none" stroke-width="1" font-family="Curly" font-weight="normal" text-anchor="start"><tspan x="0" dy="0">Fallout 3333</tspan></text><path d="M-17.74515,335.64824c0,-0.11006 0.00142,-0.21979 0.00425,-0.32918l-0.08213,-0.3696l0.13935,-0.54869c0.12557,-1.26737 0.44044,-2.47908 0.91593,-3.60646l0.34227,-1.34768l0.71514,-0.63692c0.58938,-0.90011 1.29175,-1.71957 2.08697,-2.43822v-2.26422l0.37322,-1.49287l0,-1.53882l0.45113,-1.80454l0,-96.14585l-1.40597,-7.02983l0.02219,-0.46597l-0.1684,-0.43504l-1.64871,-13.18966l0.09505,-0.78414l-0.19157,-0.76629v-201.14224l0.37322,-1.49287v-1.53882l0.82435,-3.29741l1.52126,-2.85237l1.18664,-2.76142l2.51894,-1.6162l2.44714,-1.72299l3.00505,-0.05706l3.21552,-0.33264l4.89105,0.69872l488.59652,0l0.30666,-0.07788l0.35047,0.07788h0.6966l0.35047,-0.07788l0.12558,0.03189l0.12558,-0.03189l0.35047,0.07788h0.3483l2.7864,0.6966l2.11384,0.46974l0.06302,0.00461l0.02486,0.01492l0.60204,0.13379l0.31153,0.15576l0.3483,0.08708l0.23946,0.2068l0.74942,0.37471l1.52564,1.30769l1.72303,1.03382l4.23517,4.23517l0.27191,0.16177l0.19275,0.30289l0.24629,0.24629l1.47771,2.46286l1.54199,2.42313l0.11014,0.33043l0.18471,0.30786l0.02309,0.31555l0.50641,1.51922l0.06058,0.78755l0.33814,0.71384l0.82435,4.12177l-0.05922,1.24361l0.30196,1.20784v29.67672l-0.57418,2.2967l-0.31987,2.34568l-1.64871,4.12177l-0.31055,0.43l-0.11506,0.51779l-4.42657,8.85314l-1.09498,3.83243l-0.7036,4.92522l-0.32649,0.80139l-0.02883,0.86486l-1.64871,5.77047l-0.58483,1.01371l-0.25388,1.14245l-2.24054,4.48108l-1.45561,3.63902l-0.76556,1.06l-0.43977,1.23137l-1.21703,1.82554l-0.47632,0.95264l-0.10995,0.12828l-0.13289,0.53155l-3.71094,4.29688l-1.1259,0.3043l-0.19549,0.08146l0,92.98204l0.71423,5.71382l0.80885,5.66194l-0.09258,0.89493l0.21821,0.87284v168.1681l-0.15394,0.61577l0.09191,0.62803l-0.76232,7.62318v6.79574l-0.30196,1.20784l0.05922,1.24361l-1.64871,8.24353l-0.05852,0.12353l0.0036,0.13665l-1.64871,7.41918l-0.17058,0.34116l-0.01271,0.38122l-1.64871,5.77047l-0.13915,0.2412l-0.02136,0.27764l-2.47306,7.41918l-0.28477,0.44749l-0.08446,0.52365l-1.40726,3.2836l-1.37478,5.41319l-0.87095,0.77569l-3.08283,3.56959l-1.32819,0.35897l-0.30821,0.2745l-2.8163,0.56997l-2.77387,0.74969l-0.39843,-0.10768l-1.3485,0.27291l-4.35374,-1.81406l-1.1259,-0.3043l-3.71094,-4.29687l-0.13289,-0.53155l-0.10995,-0.12828l-2.47306,-4.94612l-0.4359,-1.96153l-0.75813,-1.86087l-0.82435,-5.77047l0.09258,-0.89493l-0.21821,-0.87284l0,-29.54203h-3.16272l-1.94939,-0.48735l-2.00346,-0.15411l-4.94612,-1.64871l-0.31711,-0.2018l-0.37243,-0.05079l-3.78071,-1.51228l-2.12458,-0.70819l-0.75904,-0.48303l-0.68355,-0.1519l-3.25437,-0.5424l-0.18977,-0.08251l-0.2067,0.00984l-3.92412,-0.78482l-3.72685,-0.62114l-411.98627,0l-0.66993,9.37905v3.67591l-0.44406,1.77624l-0.10511,2.20737l-0.80028,1.41419l-0.21305,0.85221l-0.78085,0.90414l-1.00201,1.77067l-0.92387,0.4593l-1.0042,1.16276l-2.92468,0.79045l-1.85043,0.91993l-1.24597,-0.08306l-1.20548,0.32581l-1.99491,-0.53917l-3.0229,-0.20153l-1.21274,-0.94324l-0.99601,-0.26919l-1.32981,-1.53978l-0.94301,-0.73345l-0.37605,-0.79387l-1.06208,-1.22978l-0.53597,-2.14389l-0.78379,-1.65466l-0.39282,-1.96409c-1.60446,1.44087 -7.4033,6.56378 -7.53182,6.62307c-1.58346,0.73054 -3.81914,1.77092 -5.18613,0.68814c-1.48896,-1.17939 -1.01195,-3.70647 -1.02245,-5.60591c-0.00811,-1.46706 0.64515,-2.86236 0.96773,-4.29354c0.67826,-4.69568 2.02479,-8.00076 3.21648,-12.53359c0.90815,-3.45431 1.6666,-6.93659 2.42453,-10.41197l-0.13744,-0.50853l1.43201,-5.29844c1.07585,-4.6268 2.29989,-9.20633 4.02977,-13.65496l-0.03506,-0.21035c-0.8352,-1.67636 -1.30496,-3.56675 -1.30496,-5.56686zM-15.27209,371.40255l-0.34483,-0.08621l-2.79392,-2.41293c-0.28496,1.21554 -0.58251,2.42841 -0.8996,3.63683c-1.19151,4.54072 -2.48427,7.53281 -3.14385,12.20426c-0.14044,0.60484 -0.20341,1.38902 -0.30274,2.1534c0.48827,-0.39914 0.98586,-0.78952 1.45223,-1.20833c2.09624,-1.88248 4.11626,-3.85586 6.0327,-5.92209zM424.243,347.87884l1.01356,0.25339l1.04143,-0.08331l4.94612,0.82435l0.18977,0.08251l0.2067,-0.00984l3.92412,0.78482l4.7473,0.79122l1.7124,0.74452l1.82278,0.40506l0.85414,0.42707l1.6303,0.54343l0.31711,0.2018l0.37243,0.05079l3.78071,1.51228l2.67326,0.89109h5.39071l1.94939,0.48735l2.00346,0.15411l0.54868,0.18289l1.08786,0l0.30666,-0.07788l0.35047,0.07788h0.3483l2.7864,0.6966l0.37631,0.08362l0,-155.55998l-0.69872,-4.89105l0.0116,-0.11217l-0.04071,-0.10516l-0.82435,-6.59483l0.09505,-0.78414l-0.19157,-0.76629v-85.96754l-1.71501,-0.57603l-3.72815,-1.00761l-3.71094,-4.29687l-0.14878,-0.59512l-0.77694,-0.88793l-0.55496,-4.43965l-0.08183,-0.32731l0,-0.32731l-0.06743,-0.53941l0.06743,-0.18879v-51.81299l-0.3347,-1.33881l-1.4969,-4.4907l-0.15411,-2.00346l-0.48735,-1.94939v-11.54095l0.30196,-1.20784l-0.05922,-1.24361l0.80174,-4.00868l-445.92594,0v190.33708l1.49553,11.96426l1.55914,7.7957l-0.05922,1.24361l0.30196,1.20784v98.92241l-0.37322,1.49287v1.53882l-0.45113,1.80454l0,5.5155c7.13797,-12.78896 12.59564,-26.54869 18.43563,-39.95127c3.20368,-7.35234 7.20495,-14.71912 8.63309,-22.6991c0.75598,-4.22413 0.20926,-8.85366 0.82279,-13.17885c0,0 0.35355,-2.47487 2.82843,-2.12132c2.47487,0.35355 2.12132,2.82843 2.12132,2.82843c-0.62662,4.35363 -0.08212,8.93131 -0.82592,13.20046c-1.47092,8.44251 -5.61059,16.19838 -8.99595,23.96769c-6.42521,14.74564 -12.41358,29.89137 -20.59331,43.77201c-0.79347,1.34547 -1.6117,2.66729 -2.42607,3.98566v6.91352z" fill="#000000" stroke="none" stroke-width="0.5"/></g></g></svg>