<svg version="1.1" xmlns="http://www.w3.org/2000/svg" xmlns:xlink="http://www.w3.org/1999/xlink" width="558.35668" height="421.79811" viewBox="0,0,558.35668,421.79811"><g transform="translate(29.2861,21.43151)"><g stroke-miterlimit="10"><path d="M-3.25,-2.45h486.5v364.9h-486.5z" fill="#000000" stroke="#ffe7c0" stroke-width="7"/><text transform="translate(59.3584,83.90808) scale(1.66553,1.66553)" font-size="40" xml:space="preserve" fill="#ff6666" stroke="none" stroke-width="1" font-family="Sans Serif" font-weight="normal" text-anchor="start"><tspan x="0" dy="0">GAME OVER</tspan></text><path d="M53.69703,-17.08019c0.80795,-0.93901 1.75304,-1.75664 2.80419,-2.4218l0.42496,-0.36701l0.35785,-0.08946c1.7555,-0.94 3.76158,-1.47304 5.89215,-1.47304h266.26616l0.68286,0.17071l0.69753,-0.09426l6.7311,0.7479h4.25381l0.76629,0.19157l0.78414,-0.09505l5.82262,0.72783l12.41143,0l0.47549,0.11887l0.48321,-0.08205l10.65301,0.81946l11.88639,0.79243h11.12474l0.72218,0.18055l0.73833,-0.09493l13.7636,1.61925l10.4652,0.80502l0.62254,0.20751l0.65482,-0.04271l9.06789,1.64871l0.64672,0.29257l0.70906,0.03298l6.95338,2.08601l8.89496,0.68423l22.91299,0l1.11665,-4.46659l3.71094,-4.29687l7.22656,-1.95312l7.22656,1.95313l3.71094,4.29688l1.11665,4.46659h20.09564l6.25,1.5625l4.29688,3.71094l1.95313,7.22656l-1.95312,7.22656l-4.29687,3.71094l-6.25,1.5625l-0.61418,0l-2.59284,0.43214l-2.8672,1.14688l-0.85198,0.11618l-0.75871,0.40464l-2.83169,0.70792l-4.4907,1.4969l-0.78755,0.06058l-0.71384,0.33814l-3.14111,0.62822l0,294.18497l2.19428,10.97138l2.38422,10.33164l2.99803,11.24262l5.38945,12.31873l0.06781,0.4012l0.22764,0.33725l3.22962,8.88147l4.87245,12.18113l0.05079,0.37243l0.2018,0.31711l0.82435,2.47306l0.10797,1.40355l0.60092,1.68257l-0.29188,2.335l0.0771,1.00225l-0.29059,0.70572l-0.19884,1.5907l-0.86163,0.98472l-0.81065,1.96873l-2.1737,1.44196l-1.08348,1.23827l-1.58638,0.53283l-1.39453,0.92508l-1.64262,0.09503l-2.47274,0.83054l-2.05171,-0.56879l-1.30628,0.07557l-1.3777,-0.81964l-0.73547,-0.20389l-0.74379,-0.67618l-2.02233,-1.20316l-0.95921,-1.50734l-1.04161,-0.94692l-0.96213,-1.4432l-0.77349,-0.77349l-0.31213,-0.52021l-1.78654,-2.06862l-0.38955,-1.55818l-0.82635,-1.37725l-0.14892,-2.03529l-0.18679,-0.52301l-0.76556,-1.06l-0.91325,-2.28313l-2.49104,-2.98924l-1.87616,-1.87616l-4.31175,-3.69579l-2.18366,-5.24078l0.09623,-0.47548l-0.31998,0.02461l-0.43033,0.10758l-1.68798,0.56266l-2.00346,0.15411l-1.94939,0.48735h-0.44459l-12.91399,4.30466l-0.78755,0.06058l-0.71384,0.33814l-4.12177,0.82435l-1.24361,-0.05922l-1.20784,0.30196l-1.75859,0l-1.80454,0.45113h-1.53882l-1.49287,0.37322h-52.34523l-2.90806,0.58161l-1.24361,-0.05922l-1.20784,0.30196h-69.03551l-3.92566,0.65428l-0.26068,-0.02085l-0.24388,0.0944l-6.59483,0.82435l-0.78414,-0.09505l-0.76629,0.19157l-279.90041,0l-0.54868,0.18289l-2.00346,0.15411l-1.94939,0.48735l-0.44459,0l-3.02174,1.00725l-0.48869,0.03759l-0.43247,0.23065l-6.59483,1.64871h-1.53882l-1.49287,0.37322h-4.94612l-0.41628,-0.10407l-1.33065,0.2693l-3.61176,-1.5049l-0.89131,-0.22283l-0.33235,-0.28703l-0.40536,-0.1689l-0.59791,-0.69756l-2.96126,-2.55745l-0.35422,-1.3106l-0.27925,-0.32579l-0.82435,-1.64871l-0.11506,-0.51779l-0.31055,-0.43l-1.64871,-4.12177l-0.31987,-2.34568l-0.57418,-2.2967v-2.88402l-1.40597,-7.02983l0.05922,-1.24361l-0.30196,-1.20784l0,-7.35519l-0.69872,-4.89105l0.09258,-0.89493l-0.21821,-0.87284l0,-27.13967l-0.69872,-4.89105l0.09258,-0.89493l-0.21821,-0.87284l0,-138.39309l-1.57963,-0.42693l-2.73847,-0.052l-1.58624,-1.11685l-1.18752,-0.32095l-1.13518,-1.31441l-0.73335,-0.51634l-0.46409,-0.87017l-1.37832,-1.59595l-0.46513,-1.86052l-0.72415,-1.35778l-0.82435,-3.29741l0,-1.53882l-0.37322,-1.49287v-64.29957l0.37322,-1.49287v-1.53882l0.75221,-3.00884l1.55084,-7.75421l0.79122,-4.7473l0.39534,-0.90928l0.07604,-0.98858l1.40261,-4.20783l2.32044,-11.60219l0.33814,-0.71384l0.06058,-0.78755l2.98727,-8.9618l0.66312,-3.9787l0.39534,-0.90928l0.07604,-0.98858l1.33856,-4.01568l0.49304,-2.95824v-11.33077l0.30196,-1.20784l-0.05922,-1.24361l0.58161,-2.90806l0,-11.12756l0.10407,-0.41628l-0.2693,-1.33065l1.5049,-3.61176l0.22283,-0.89131l0.28703,-0.33235l0.1689,-0.40536l0.69756,-0.59791l2.55745,-2.96126l1.3106,-0.35422l0.32579,-0.27925l0.74942,-0.37471l0.23946,-0.2068l0.3483,-0.08708l0.31153,-0.15576l2.80377,-0.62306l2.7864,-0.6966h0.3483l0.35047,-0.07788l0.30666,0.07788h52.30191zM467.15551,19.23121l-7.28423,0l-0.30666,0.07788l-0.35047,-0.07788h-0.3483l-2.7864,-0.6966l-2.80377,-0.62306l-0.31153,-0.15576l-0.3483,-0.08708l-0.23946,-0.2068l-1.60356,-0.80178l-1.17487,-0.39162l-2.09941,-0.52485l-5.84584,-0.73073l-0.56044,-0.21694l-0.60076,0.01581l-6.0797,-1.35105l-3.39289,0l-0.30666,0.07788l-0.35047,-0.07788l-0.3483,0l-2.7864,-0.6966l-2.80377,-0.62306l-0.31153,-0.15576l-0.3483,-0.08708l-0.04477,-0.03866l-0.19017,-0.04754h-4.23165l-0.56065,-0.14016l-0.57104,0.08883l-9.06789,-0.82435l-0.37429,-0.13057l-0.39472,0.03655l-9.7718,-1.50335h-317.24452l-0.68286,-0.17071l-0.69753,0.09426l-6.7311,-0.7479l-62.6482,0v0.68966l-0.30196,1.20784l0.05922,1.24361l-0.58161,2.90806v11.12756l-0.25339,1.01356l0.08331,1.04143l-0.82435,4.94612l-0.39534,0.90928l-0.07604,0.98858l-1.33856,4.01568l-0.66312,3.9787l-0.39534,0.90928l-0.07604,0.98858l-3.05132,9.15396l-2.32044,11.60219l-0.02731,0.05765l1.60375,0.32457l0.30821,0.2745l1.32819,0.35897l3.08283,3.56959l0.87095,0.77569l1.39754,5.50282l-0.11886,0.53487l0.04098,0.16391v224.9845l0.69872,4.89105l-0.09258,0.89493l0.21821,0.87284v27.13967l0.69872,4.89105l-0.09258,0.89493l0.21821,0.87284l0,7.00579l1.05054,5.25271l3.10545,-1.03515l2.00346,-0.15411l1.94939,-0.48735h0.44459l0.54868,-0.18289l2.00346,-0.15411l1.94939,-0.48735l281.15066,0l5.56959,-0.6962l4.69459,-0.78243l1.04143,0.08331l1.01356,-0.25339h68.8323l2.90806,-0.58161l1.24361,0.05922l1.20784,-0.30196h52.04415l1.80454,-0.45113h1.53882l1.49287,-0.37322h2.05967l2.14495,-0.42899l14.10008,-4.70003l2.00346,-0.15411l1.94939,-0.48735h0.44459l0.24507,-0.08169l0,-323.1272z" fill="#000000" stroke="none" stroke-width="0.5"/></g></g></svg>