<svg version="1.1" xmlns="http://www.w3.org/2000/svg" xmlns:xlink="http://www.w3.org/1999/xlink" width="556.56062" height="405.76458" viewBox="0,0,556.56062,405.76458"><g transform="translate(40.67969,26.37763)"><g fill="#000000" stroke-miterlimit="10"><path d="M-3.25,-2.45h486.5v364.9h-486.5z" stroke="#ffe7c0" stroke-width="7"/><path d="M9.72791,210.4564c10.80063,43.20251 3.58002,105.85998 4.12177,140.16999c0.00044,0.0278 2.70612,-0.27011 3.16272,-0.27449c5.70015,-0.05472 11.40359,0.17729 17.10124,0c4.45592,-0.13865 8.41816,-0.71343 13.02007,-0.82435c3.92071,-0.0945 7.91528,-2.45264 11.92071,-2.47306c23.90594,-0.12187 47.81254,-0.04636 71.71875,0c3.10433,0.00602 6.76377,0.8174 9.6349,0.82435c26.52277,0.06425 227.19929,3.61707 332.5095,-0.82435c0.23675,-0.00998 -0.15163,-0.45361 -0.17241,-0.68966c-0.11538,-1.31068 -0.1206,-2.48751 -0.33701,-3.82109c-0.96786,-5.96424 -3.77442,-12.43634 -3.78476,-18.43645c-0.16133,-93.64101 0.02593,-187.2823 0,-280.92345c-0.00114,-4.10872 1.02348,-8.4687 1.45635,-12.60132c0.3219,-3.07316 -0.32541,-6.36644 -0.60007,-9.65044l-3.61272,0.60212l-1.04143,-0.08331l-1.01356,0.25339l-5.35708,0l-2.14495,0.42899l-6.68089,2.22696l-0.78755,0.06058l-0.71384,0.33814l-8.24353,1.64871l-1.24361,-0.05922l-1.20784,0.30196h-64.29957l-0.60449,-0.15112l-3.11684,-0.1173l-1.37234,-1.00499l-1.15634,-0.28908l-3.91788,-3.38362h-126.6748l-0.87284,-0.21821l-0.89493,0.09258l-5.77047,-0.82435l-0.4539,-0.18492l-0.48996,0.01289l-6.69228,-1.48717l-7.5026,-0.75026l-0.48163,-0.17289l-0.51064,0.0333l-9.06789,-1.64871l-0.64672,-0.29257l-0.70906,-0.03298l-7.48639,-2.24592l-3.14594,-0.52432l-183.75318,0l-1.68255,6.73019l-0.07008,0.3504c3.0681,3.44811 2.66342,9.37296 3.66857,13.39355l0,6.04077l3.38581,-0.19587l4.8793,2.90287l3.45874,5.43516l0.70819,2.12458l1.51228,3.78071l0.07762,0.5692l0.4467,0.38288l1.05127,2.52305l0.3257,0.51182l0.44978,1.34934l0.35691,0.85657l-0.02697,0.13324l0.04463,0.1339l0.03929,0.51083l0.22895,0.41032l-0.03908,2.05798l0.26494,3.44424l-0.34631,0.84103l-0.02167,1.14124l-1.07967,1.53345l-0.71406,1.73415l-0.95119,0.63099l-0.52362,0.7437l-3.04801,1.62561l-1.71526,1.13785l-0.46908,0.02714l-0.45207,0.2411l-3.29741,0.82435h-1.53882l-1.49287,0.37322h-1.51401zM494.44774,16.62345c0.38394,3.58835 0.90224,10.01398 0.90224,14.13959c0,4.26733 -1.72464,8.86914 -1.72659,13.12795c-0.0425,92.72927 -0.06084,185.45857 0,278.18783c0.00182,2.77785 1.45423,5.36288 2.09984,8.06466c1.13638,4.7556 1.49717,9.82632 2.02193,14.68253c0.85762,7.93654 4.6549,14.16182 -0.30442,21.95504c-6.69672,10.52341 -36.90127,5.22085 -39.81021,5.27344c-1.70371,0.0308 -3.63202,0.82269 -5.35951,0.82435c-104.14327,0.10027 -208.28665,0.04664 -312.42996,0c-3.07986,-0.00138 -6.96854,-0.79797 -9.6349,-0.82435c-23.20317,-0.22961 -46.40907,-0.14658 -69.61292,0c-3.7974,0.02399 -7.60352,2.2862 -11.43106,2.47306c-10.68541,0.52165 -20.60215,0.53863 -31.45747,0.82435c-11.74807,0.30922 -24.84027,11.01981 -32.23865,-3.77694c-0.97886,-1.95771 -1.56351,-5.07605 -1.5625,-7.25543c0.02591,-56.0323 0.14878,-112.0648 0,-168.09691c-0.02351,-8.85316 -4.09918,-18.03772 -4.12177,-27.09378c-0.05154,-20.66213 -0.21573,-41.32556 -0.22554,-61.98796l-1.76799,-0.442l-0.57784,-0.49905l-0.10591,-0.03782l-2.05937,-1.37291l-0.46765,-0.19486l-2.10444,-2.45518l-2.1752,-2.39272l-0.13535,-0.48821l-4.72377,-9.44753l-0.19517,-0.87828l-0.48303,-0.75904l-4.94612,-14.83836l-0.02671,-0.34721l-0.4674,-1.13511l0.19004,-2.47053l-0.19004,-2.47053l0.4674,-1.13511l0.02671,-0.34721l0.43464,-1.30391l-0.04263,-0.73681l2.90287,-4.8793l0.60391,-0.3843l0.3843,-0.60391l4.8793,-2.90287l0.73681,0.04263l1.30391,-0.43464l2.00346,-0.15411l0.16598,-0.0415v-0.31115l0.25339,-1.01356l-0.08331,-1.04143l0.82435,-4.94612l0.39534,-0.90928l0.07604,-0.98858l0.18289,-0.54868v-4.56636l0.37322,-1.49287l0,-1.53882l2.47306,-9.89224l0.40464,-0.75871l0.11618,-0.85198l2.87119,-7.17797l0.23935,-1.19676c-0.88875,-0.33199 -1.72959,-0.76223 -2.50929,-1.27752l-1.27284,-0.59002l-0.49701,-0.8249c-2.37113,-2.27493 -3.84721,-5.47562 -3.84721,-9.02106c0,-1.0699 0.13442,-2.1084 0.38728,-3.09954l-0.01364,-0.95153l0.76294,-1.16414c0.52307,-1.13784 1.21201,-2.18364 2.03585,-3.10642l0.31329,-0.47803l0.32821,-0.18935c1.51946,-1.46857 3.41023,-2.5554 5.51777,-3.10595l11.27524,-3.2215l0.07746,-0.00258l0.06759,-0.03792l9.06789,-2.47306l0.37579,-0.008l0.33805,-0.16433l31.32543,-6.59483l0.06494,0.00244l0.05873,-0.02782l11.8692,-2.37384l4.16696,-1.19056l0.6096,-0.3048l1.34382,-0.29863l1.21465,-0.64781l6.59483,-1.64871l1.53882,0l1.49287,-0.37322h61.00216l0.72218,0.18055l0.73833,-0.09493l14.01401,1.64871l0.47915,0.1815l0.51179,-0.02437l12.3653,2.47306l0.17058,0.0808l0.18872,-0.00343l21.43319,4.94612l0.5389,0.27495l0.6032,0.0464l13.90792,4.63597l2.95824,0.49304l275.94823,0l6.25,1.5625l2.31194,1.99668l4.75683,-0.86488l7.63992,-1.52798l5.28401,-1.50972l1.74255,-0.05809l1.69146,-0.42287h4.12177l1.03203,0.25801l1.4385,-0.11065l2.90718,1.19708l0.87229,0.21807l0.31227,0.26969l1.15814,0.47688l0.81284,1.22533l2.01363,1.73904l0.59129,2.18778l0.72038,1.08594l0.11626,2.0096l0.5252,1.94324l-0.34,1.25801l0.13089,2.26249l-1.36036,2.28657l-0.38365,1.41949l-0.9479,0.81864l-0.21096,0.3546l-0.75857,0.48272l-2.37945,2.05498l-1.39967,0.34992l-0.89748,0.57112l-4.94612,1.64871l-0.78755,0.06058l-0.71384,0.33814l-3.62567,0.72513l-2.95093,0.84312c0.05531,0.33271 0.10144,0.67042 0.13808,1.01285z" stroke="none" stroke-width="0.5"/></g></g></svg>