<svg version="1.1" xmlns="http://www.w3.org/2000/svg" xmlns:xlink="http://www.w3.org/1999/xlink" width="359.79981" height="114.90041" viewBox="0,0,359.79981,114.90041"><g transform="translate(-60.1001,-122.54981)"><g data-paper-data="{&quot;isPaintingLayer&quot;:true}" fill-rule="nonzero" stroke-linecap="butt" stroke-linejoin="miter" stroke-miterlimit="10" stroke-dasharray="" stroke-dashoffset="0" style="mix-blend-mode: normal"><path d="M62.6001,234.95021v-109.9004h354.79981v109.90041z" fill="#bcfffb" stroke="#688d8d" stroke-width="5"></path><text transform="translate(178.17285,197.96805) scale(1.55736,1.55736)" font-size="40" xml:space="preserve" fill="#688d8d" fill-rule="nonzero" stroke="#000000" stroke-width="0" stroke-linecap="butt" stroke-linejoin="miter" stroke-miterlimit="10" stroke-dasharray="" stroke-dashoffset="0" font-family="Sans Serif" font-weight="normal" text-anchor="start" style="mix-blend-mode: normal"><tspan x="0" dy="0">Play</tspan></text><path d="M103.48485,167.61286c0,-1.38071 1.11929,-2.5 2.5,-2.5c1.38071,0 2.5,1.11929 2.5,2.5c0,1.38071 -1.11929,2.5 -2.5,2.5c-1.38071,0 -2.5,-1.11929 -2.5,-2.5z" fill="#bcfffb" stroke="none" stroke-width="0.5"></path><path d="M276.66296,150.76178c11.16923,-4.97349 26.20847,-0.46949 33.38655,8.82643c0.55744,0.72191 0.33237,1.78382 -0.09492,2.89857c5.13128,0.23502 16.90345,0.43333 18.95093,5.00343c0.32243,0.7197 -0.14339,1.59543 0.02564,2.36573c0.16904,0.7703 0.95875,1.37051 0.96731,2.15909c0.00581,0.53551 -0.77564,0.7974 -0.92969,1.3103c-1.67262,5.56876 -8.5362,7.5466 -13.9597,9.76979c-0.35473,0.27214 -0.54696,0.55234 -0.31216,0.88495c2.03997,2.88983 3.04059,5.08045 1.89923,9.05268c-0.31279,1.08861 -1.2372,2.4939 -2.02358,3.2934c-5.168,5.25422 -17.78947,20.34597 -27.9239,15.34797c-0.07472,-0.03685 -4.53931,1.90434 -5.46042,1.98974c-2.53544,0.23511 -5.08677,0.30935 -7.63308,0.29995c-4.13782,-0.01529 -15.73124,-0.7082 -16.41449,-7.43474c-0.27627,-2.71979 -0.1505,-4.75004 0.51425,-6.25869l-3.13739,-0.62668l-26.17201,-0.64771l-38.91405,5.06154l-1.64878,-0.19151l-1.88237,-0.13557l-0.07622,-0.09193l-0.23224,-0.02697l-2.23165,-2.94482l-2.28406,-2.7549l0.0633,-0.17555l-0.11271,-0.14873l0.51053,-1.24269l-14.78714,9.47539l-0.09382,0.0316l-0.07848,0.14361l-1.76157,0.47616l-1.72933,0.58248l-0.14503,-0.07584l-0.09557,0.02584l-3.97504,0.07561l-0.66128,-0.15202l-0.36291,0.16016l-1.33532,-0.55056l-1.40765,-0.3236l-0.20332,-0.34061l-0.6273,-0.25864l-0.88645,-0.65457l-0.01401,-0.01698l-0.01064,-0.00129l-0.01075,-0.02462l-2.42441,-2.93884l0.24209,-2.06151l-0.83026,-1.90239l1.46659,-3.5162l0.00314,-0.02669l0.0098,-0.00432l0.00848,-0.02032l3.89973,-5.23625l0.40699,-0.33295l0.07378,-0.33507l1.31712,-0.80283l1.19389,-0.97673l0.34059,0.04141l0.449,-0.27368l16.38358,-5.11153l0.76068,-0.04375l0.71678,-0.25839l0.15458,-0.01567l0.13408,-0.08591l-30.72676,1.08206l-1.02451,-0.21813l-1.04747,0.00158l-4.48382,-1.11377l-0.09432,0.03175l-0.20088,-0.10508l-0.04794,-0.01191l-1.58543,-0.84249l-1.59087,-0.83217l-0.03691,-0.03283l-0.20019,-0.10639l-0.02709,-0.09577l-0.44902,-0.39935l-2.17903,-3.19268l0.35635,-1.69027l-0.70263,-1.57807l1.46164,-3.57841l3.23445,-4.41053l1.82104,-1.51237l0.25413,-0.4824l0.49907,-0.14311l0.39941,-0.3317l0.54173,0.06181l2.27544,-0.65253l27.1365,-0.9311l0.27235,0.05824l0.21405,-0.11755l1.62641,0.51114l0.32925,0.07041l-0.73198,-2.06104l0.2708,-0.53922l-0.03841,-0.16421l0.23224,-0.22173l1.27015,-2.5291l3.15103,-3.66305c-2.181,-1.54555 -7.35287,-5.21345 -7.48953,-5.34308c-1.46296,-1.38775 -2.48754,-2.74895 -3.34306,-4.18232l-3.09055,-3.90396c-0.34578,-0.42884 -0.55277,-0.97427 -0.55277,-1.56804c0,-1.38071 1.11929,-2.5 2.5,-2.5c0.11199,0 0.22225,0.00736 0.33034,0.02164l4.25749,0.50196c1.82131,0.23224 3.70959,0.15509 5.46394,0.69671c4.18134,1.29089 8.72418,5.01102 12.49938,7.20553c2.90047,1.68604 5.80094,3.37206 8.70141,5.0581l11.27176,-0.519l6.28281,-2.23403l0.89772,-0.08704l0.84804,-0.30708l2.43521,-0.25034l0.31499,0.04521l0.52665,-0.14252l0.475,0.28627l2.50957,0.36015l1.15901,1.61804l6.62279,-0.30494l0.06114,-0.04576l0.20284,0.0336l0.28198,-0.01299l1.659,0.33451l1.66963,0.27658l0.25898,0.11229l0.20154,0.04064l0.0409,0.06449l2.64131,1.1453l0.27354,0.20973l0.33361,0.08671l0.65609,0.3578l2.84341,2.61847l0.03153,1.58542l1.0041,1.22734l-0.46651,3.83715l-0.30951,0.80764l9.10407,0.45607l1.06617,0.32401l1.33473,0.13652l0.24207,0.31051l2.79021,-0.1318l1.34347,0.26923l1.36637,0.10206l1.42764,0.47238l0.07255,0.04594l0.31178,0.03029l0.26281,0.33358l2.61854,1.65822l0.08622,0.4262l2.42876,0.867c1.81704,-5.36759 4.6995,-10.42034 10.36707,-12.94402zM183.86785,147.87181l4.02658,-0.1854c-0.6651,-0.38662 -1.3302,-0.77324 -1.99529,-1.15986c-3.45252,-2.00694 -7.74165,-5.62843 -11.56871,-6.78516c-1.00173,-0.30277 -2.05783,-0.33676 -3.11132,-0.38371c2.16204,1.68813 3.87025,3.84876 6.37326,5.61406c1.58428,1.11735 3.16721,2.23663 4.74926,3.35717zM206.98137,179.14547l0.00381,-0.03896c-0.15588,0.02437 -0.31551,0.04794 -0.47826,0.07072c0.23058,0.04223 0.46117,0.08445 0.69176,0.12668zM211.69737,185.21236c-0.2444,0.40911 -0.60237,0.74253 -1.03038,0.95673l3.4995,-0.45518c-0.82216,-0.17344 -1.64459,-0.34493 -2.46912,-0.50155z" fill="#bcfffb" stroke="none" stroke-width="0.5"></path><text transform="translate(166.77785,192.21728) scale(1.01811,1.01811)" font-size="40" xml:space="preserve" fill="#688d8d" fill-rule="nonzero" stroke="none" stroke-width="1" stroke-linecap="butt" stroke-linejoin="miter" stroke-miterlimit="10" stroke-dasharray="" stroke-dashoffset="0" font-family="Sans Serif" font-weight="normal" text-anchor="start" style="mix-blend-mode: normal"><tspan x="0" dy="0">Credit's</tspan></text></g></g></svg>